<svg width="117" height="117" viewBox="0 0 117 117" fill="none" xmlns="http://www.w3.org/2000/svg">
<path d="M13 117C9.425 117 6.3635 115.728 3.8155 113.185C1.27183 110.637 0 107.575 0 104V13C0 9.425 1.27183 6.3635 3.8155 3.8155C6.3635 1.27183 9.425 0 13 0H104C107.575 0 110.637 1.27183 113.185 3.8155C115.728 6.3635 117 9.425 117 13V104C117 107.575 115.728 110.637 113.185 113.185C110.637 115.728 107.575 117 104 117H13ZM13 104H52V13H13V104ZM65 104H104V58.5H65V104ZM65 45.5H104V13H65V45.5Z" fill="black"/>
</svg>
