<svg width="100" height="100" viewBox="0 0 100 100" fill="none" xmlns="http://www.w3.org/2000/svg">
<path d="M100 16.5217C100 12.1739 98.3333 8.33333 95 5C91.6667 1.66667 87.8261 0 83.4783 0H16.5217C12.1739 0 8.33333 1.66667 5 5C1.66667 8.33333 0 12.1739 0 16.5217V83.4783C0 87.8261 1.66667 91.6667 5 95C8.33333 98.3333 12.1739 100 16.5217 100H50V62.1739H37.8261V45.6522H50V39.1304C50 33.4783 51.8478 28.5145 55.5435 24.2391C59.2391 19.9638 63.6232 17.8261 68.6956 17.8261H82.1739V34.3478H68.6956C67.971 34.3478 67.2826 34.7826 66.6304 35.6522C65.9783 36.5217 65.6522 37.6087 65.6522 38.913V45.6522H82.1739V62.1739H65.6522V100H83.4783C87.8261 100 91.6667 98.3333 95 95C98.3333 91.6667 100 87.8261 100 83.4783V16.5217Z" fill="#4267B2"/>
</svg>
