<svg width="58" height="58" viewBox="0 0 58 58" fill="none" xmlns="http://www.w3.org/2000/svg">
<circle cx="29" cy="29" r="29" fill="#6001D3"/>
<path d="M28.5 34.05C31.5651 34.05 34.05 31.5651 34.05 28.5C34.05 25.4348 31.5651 22.95 28.5 22.95C25.4348 22.95 22.95 25.4348 22.95 28.5C22.95 31.5651 25.4348 34.05 28.5 34.05Z" fill="white"/>
<path d="M30.35 13.8276V10H26.65V13.8276C23.3943 14.2427 20.3686 15.7271 18.0479 18.0479C15.7271 20.3686 14.2427 23.3943 13.8276 26.65H10V30.35H13.8276C14.2424 33.6058 15.7267 36.6317 18.0475 38.9525C20.3683 41.2733 23.3942 42.7576 26.65 43.1723V47H30.35V43.1723C33.6058 42.7576 36.6317 41.2733 38.9525 38.9525C41.2733 36.6317 42.7576 33.6058 43.1723 30.35H47V26.65H43.1723C42.7573 23.3943 41.2729 20.3686 38.9521 18.0479C36.6314 15.7271 33.6057 14.2427 30.35 13.8276V13.8276ZM28.5 39.6C22.3784 39.6 17.4 34.6217 17.4 28.5C17.4 22.3784 22.3784 17.4 28.5 17.4C34.6217 17.4 39.6 22.3784 39.6 28.5C39.6 34.6217 34.6217 39.6 28.5 39.6Z" fill="white"/>
</svg>
