<svg width="100" height="100" viewBox="0 0 100 100" fill="none" xmlns="http://www.w3.org/2000/svg">
<path d="M15.4297 83.724H30.4687V38.5417H15.4297V83.724ZM31.4453 24.6094C31.4019 22.3524 30.6207 20.4861 29.1016 19.0104C27.5825 17.5347 25.5642 16.7969 23.0469 16.7969C20.5295 16.7969 18.4787 17.5347 16.8945 19.0104C15.3103 20.4861 14.5182 22.3524 14.5182 24.6094C14.5182 26.8229 15.2886 28.6784 16.8294 30.1758C18.3702 31.6732 20.3776 32.4219 22.8516 32.4219H22.9167C25.4774 32.4219 27.5391 31.6732 29.1016 30.1758C30.6641 28.6784 31.4453 26.8229 31.4453 24.6094ZM69.5312 83.724H84.5703V57.8125C84.5703 51.1285 82.9861 46.072 79.8177 42.6432C76.6493 39.2144 72.4609 37.5 67.2526 37.5C61.3498 37.5 56.8142 40.0391 53.6458 45.1172H53.776V38.5417H38.737C38.8672 41.4062 38.8672 56.467 38.737 83.724H53.776V58.4635C53.776 56.8142 53.9279 55.599 54.2318 54.8177C54.8828 53.2986 55.8594 52.0074 57.1615 50.944C58.4635 49.8806 60.0694 49.349 61.9792 49.349C67.0139 49.349 69.5312 52.7561 69.5312 59.5703V83.724ZM100 18.75V81.25C100 86.4149 98.1662 90.8312 94.4987 94.4987C90.8312 98.1662 86.4149 100 81.25 100H18.75C13.5851 100 9.16884 98.1662 5.5013 94.4987C1.83377 90.8312 0 86.4149 0 81.25V18.75C0 13.5851 1.83377 9.16884 5.5013 5.5013C9.16884 1.83377 13.5851 0 18.75 0H81.25C86.4149 0 90.8312 1.83377 94.4987 5.5013C98.1662 9.16884 100 13.5851 100 18.75Z" fill="#0077B5"/>
</svg>
