<svg width="120" height="118" viewBox="0 0 120 118" fill="none" xmlns="http://www.w3.org/2000/svg">
<path d="M61.3229 0.000207716C40.4801 -0.0546759 22.1384 10.7711 11.6556 27.1264C11.1909 27.8536 11.7102 28.8141 12.5713 28.8141H22.1794C22.8355 28.8141 23.4505 28.526 23.8605 28.0183C24.8173 26.852 25.8423 25.7269 26.922 24.6567C31.3776 20.1974 36.5575 16.6848 42.3252 14.2425C48.2842 11.7179 54.6258 10.4281 61.1725 10.4281C67.7192 10.4281 74.0609 11.7041 80.0198 14.2425C85.7875 16.6848 90.9674 20.1974 95.423 24.6567C99.8786 29.116 103.364 34.3162 105.81 40.0927C108.339 46.075 109.61 52.4278 109.61 59.0001C109.61 65.5724 108.325 71.9252 105.81 77.9075C103.377 83.684 99.8786 88.8842 95.423 93.3435C90.9674 97.8028 85.7875 101.315 80.0198 103.758C74.0562 106.286 67.6463 107.584 61.1725 107.572C54.6258 107.572 48.2842 106.282 42.3252 103.758C36.5689 101.318 31.3381 97.7813 26.922 93.3435C25.8423 92.2596 24.8309 91.1345 23.8605 89.9819C23.4505 89.4742 22.8218 89.1861 22.1794 89.1861H12.5713C11.7102 89.1861 11.1772 90.1466 11.6556 90.8738C22.1248 107.188 40.3844 118 61.1725 118C93.4549 118 119.669 91.9166 119.997 59.6038C120.325 26.7697 94.0699 0.0825332 61.3229 0.000207716ZM44.009 74.3675V63.9396H1.09339C0.492026 63.9396 0 63.4457 0 62.842V55.1583C0 54.5545 0.492026 54.0606 1.09339 54.0606H44.009V43.6327C44.009 42.7134 45.0751 42.192 45.7858 42.7683L65.1798 58.1357C65.3105 58.2384 65.4162 58.3696 65.4888 58.5193C65.5615 58.6691 65.5993 58.8335 65.5993 59.0001C65.5993 59.1667 65.5615 59.3311 65.4888 59.4809C65.4162 59.6306 65.3105 59.7618 65.1798 59.8645L45.7858 75.2319C45.0751 75.7945 44.009 75.2868 44.009 74.3675Z" fill="black"/>
</svg>
