<svg width="58" height="58" viewBox="0 0 58 58" fill="none" xmlns="http://www.w3.org/2000/svg">
<circle cx="29" cy="29" r="29" fill="#6001D3"/>
<path fill-rule="evenodd" clip-rule="evenodd" d="M27.5976 18.1978C28.2649 17.5305 29.3468 17.5307 30.014 18.198L40.887 29.0732C41.5542 29.7405 41.5541 30.8224 40.8868 31.4896C40.2194 32.1568 39.1375 32.1567 38.4703 31.4894L30.514 23.5314L30.5124 38.8384C30.5123 39.782 29.7472 40.547 28.8036 40.5469C27.8599 40.5468 27.0949 39.7817 27.095 38.838L27.0966 23.5311L19.1386 31.4874C18.4713 32.1546 17.3894 32.1545 16.7222 31.4872C16.055 30.8198 16.0551 29.7379 16.7224 29.0707L27.5976 18.1978Z" fill="white"/>
</svg>
