<svg width="100" height="100" viewBox="0 0 100 100" fill="none" xmlns="http://www.w3.org/2000/svg">
<path d="M83.3333 31.3802C80.9028 32.4653 78.2769 33.2031 75.4557 33.5937C78.4071 31.8576 80.4253 29.3186 81.5104 25.9766C78.6892 27.6259 75.7812 28.7326 72.7865 29.2969C70.1389 26.4323 66.8186 25 62.8255 25C59.0495 25 55.8268 26.3346 53.1576 29.0039C50.4883 31.6732 49.1536 34.8958 49.1536 38.6719C49.1536 39.9306 49.2622 40.9722 49.4792 41.7969C43.8802 41.4931 38.6285 40.0825 33.724 37.5651C28.8194 35.0477 24.6528 31.684 21.224 27.474C19.9653 29.6441 19.3359 31.9444 19.3359 34.375C19.3359 39.3229 21.3108 43.1207 25.2604 45.7682C23.2205 45.7248 21.0503 45.1606 18.75 44.0755V44.2057C18.75 47.4609 19.8351 50.3581 22.0052 52.8971C24.1753 55.4362 26.8446 57.0095 30.013 57.6172C28.7543 57.9644 27.6476 58.138 26.6927 58.138C26.1285 58.138 25.2821 58.0512 24.1536 57.8776C25.0651 60.612 26.6819 62.8689 29.0039 64.6484C31.326 66.4279 33.9627 67.3394 36.9141 67.3828C31.8793 71.2891 26.2153 73.2422 19.9219 73.2422C18.7934 73.2422 17.7083 73.1771 16.6667 73.0469C23.0903 77.1267 30.0781 79.1667 37.6302 79.1667C42.4913 79.1667 47.0486 78.3963 51.3021 76.8555C55.5556 75.3147 59.2014 73.253 62.2396 70.6706C65.2778 68.0881 67.8928 65.115 70.0846 61.7513C72.2765 58.3876 73.9041 54.872 74.9674 51.2044C76.0308 47.5369 76.5625 43.8802 76.5625 40.2344C76.5625 39.4531 76.5408 38.8672 76.4974 38.4766C79.2318 36.5234 81.5104 34.158 83.3333 31.3802ZM100 18.75V81.25C100 86.4149 98.1662 90.8312 94.4987 94.4987C90.8312 98.1662 86.4149 100 81.25 100H18.75C13.5851 100 9.16884 98.1662 5.5013 94.4987C1.83377 90.8312 0 86.4149 0 81.25V18.75C0 13.5851 1.83377 9.16884 5.5013 5.5013C9.16884 1.83377 13.5851 0 18.75 0H81.25C86.4149 0 90.8312 1.83377 94.4987 5.5013C98.1662 9.16884 100 13.5851 100 18.75Z" fill="#1DA1F2"/>
</svg>
