<svg width="124" height="124" viewBox="0 0 124 124" fill="none" xmlns="http://www.w3.org/2000/svg">
<path d="M62 26.5714C57.6206 26.5714 53.3395 27.8701 49.6981 30.3032C46.0568 32.7362 43.2187 36.1945 41.5427 40.2406C39.8668 44.2866 39.4283 48.7388 40.2827 53.0341C41.137 57.3294 43.2459 61.2749 46.3427 64.3716C49.4394 67.4684 53.3849 69.5773 57.6802 70.4316C61.9755 71.286 66.4277 70.8475 70.4737 69.1716C74.5198 67.4957 77.9781 64.6575 80.4112 61.0162C82.8442 57.3748 84.1429 53.0937 84.1429 48.7143C84.1429 42.8416 81.81 37.2095 77.6574 33.0569C73.5048 28.9043 67.8727 26.5714 62 26.5714Z" fill="black"/>
<path d="M62 0C49.7376 0 37.7505 3.63624 27.5547 10.4489C17.3588 17.2615 9.41213 26.9446 4.7195 38.2736C0.0268636 49.6026 -1.20094 62.0688 1.19134 74.0956C3.58362 86.1224 9.48855 97.1697 18.1594 105.841C26.8303 114.511 37.8776 120.416 49.9044 122.809C61.9312 125.201 74.3974 123.973 85.7264 119.281C97.0554 114.588 106.738 106.641 113.551 96.4453C120.364 86.2495 124 74.2624 124 62C123.981 45.5623 117.443 29.8033 105.82 18.1801C94.1967 6.5569 78.4377 0.0187538 62 0V0ZM97.3932 101.529C97.3049 95.7206 94.9382 90.1789 90.803 86.0984C86.6679 82.0179 81.0952 79.7252 75.2857 79.7143H48.7143C42.9048 79.7252 37.3322 82.0179 33.197 86.0984C29.0618 90.1789 26.6951 95.7206 26.6069 101.529C18.576 94.3584 12.9125 84.9173 10.3666 74.4561C7.82061 63.9949 8.51218 53.0071 12.3497 42.9477C16.1872 32.8882 22.9897 24.2317 31.8564 18.1242C40.7231 12.0168 51.2357 8.74654 62.0022 8.74654C72.7688 8.74654 83.2814 12.0168 92.1481 18.1242C101.015 24.2317 107.817 32.8882 111.655 42.9477C115.492 53.0071 116.184 63.9949 113.638 74.4561C111.092 84.9173 105.429 94.3584 97.3976 101.529H97.3932Z" fill="black"/>
</svg>
